<svg version="1.1" id="Calque_1" xmlns="http://www.w3.org/2000/svg" xmlns:xlink="http://www.w3.org/1999/xlink" x="0px" y="0px" viewBox="0 0 18 18" style="enable-background:new 0 0 18 18;" xml:space="preserve">
	<path d="M2,2.1c0.4-0.4,1-0.4,1.4,0l5.5,5.5l5.5-5.5c0.4-0.4,1-0.4,1.4,0l0.1,0.1c0.4,0.4,0.4,1,0,1.4l-5.5,5.5l5.5,5.5c0.4,0.4,0.4,0.9,0.1,1.3l-0.1,0.1L15.8,16c-0.4,0.4-1,0.4-1.4,0l-5.5-5.5L3.4,16c-0.4,0.4-1,0.4-1.4,0l-0.1-0.1c-0.4-0.4-0.4-1,0-1.4l5.5-5.5L1.9,3.6C1.6,3.2,1.6,2.7,1.9,2.3L2,2.1L2,2.1z"/>
</svg>
